<?xml version="1.0" standalone="no"?>
<!DOCTYPE svg PUBLIC "-//W3C//DTD SVG 1.1//EN" "http://www.w3.org/Graphics/SVG/1.1/DTD/svg11.dtd" >
<svg xmlns="http://www.w3.org/2000/svg">
<metadata>Generated by IcoMoon</metadata>
<defs>
<font id="icomoon" horiz-adv-x="1024">
<font-face units-per-em="1024" ascent="960" descent="-64" />
<missing-glyph horiz-adv-x="1024" />
<glyph unicode="&#x20;" horiz-adv-x="0" d="" />
<glyph unicode="&#xe900;" glyph-name="arrow-down" d="M173.178 700.163l338.822-338.070 338.822 338.070 104.082-104.082-442.904-442.904-442.904 442.904z" />
<glyph unicode="&#xe901;" glyph-name="attachment" horiz-adv-x="512" d="M426.666 682.668v-490.667c0-94.257-76.41-170.666-170.666-170.666s-170.666 76.41-170.666 170.666v0 533.334c0 58.91 47.756 106.667 106.667 106.667s106.667-47.756 106.667-106.667v0-447.999c0-23.564-19.103-42.667-42.667-42.667s-42.667 19.103-42.667 42.667v0 405.334h-64v-405.334c0-58.91 47.756-106.667 106.667-106.667s106.667 47.756 106.667 106.667v0 447.999c0 94.257-76.41 170.666-170.666 170.666s-170.666-76.41-170.666-170.666v0-533.334c0-129.603 105.063-234.666 234.666-234.666s234.666 105.063 234.666 234.666v0 490.667z" />
<glyph unicode="&#xe902;" glyph-name="call" d="M248.957 485.85c72.236-139.208 182.946-249.92 318.047-320.211l4.105-1.945 107.58 107.58c8.799 8.81 20.964 14.261 34.398 14.261 5.535 0 10.854-0.924 15.809-2.629l-0.341 0.102c51.954-17.668 111.799-27.867 174.027-27.867 0.177 0 0.357 0 0.533 0h-0.029c26.981-0.083 48.83-21.934 48.912-48.906v-170.655c-0.083-26.981-21.934-48.83-48.906-48.912h-0.009c-0.022 0-0.048 0-0.072 0-458.957 0-831.012 372.057-831.012 831.012 0 0.027 0 0.052 0 0.076v-0.004c0.083 26.981 21.934 48.83 48.906 48.912h171.094c26.981-0.083 48.83-21.934 48.912-48.906v-0.009c0-0.24-0.001-0.526-0.001-0.81 0-62.123 10.199-121.862 29.012-177.639l-1.145 3.916c1.482-4.47 2.338-9.617 2.338-14.963 0-13.654-5.579-26.005-14.579-34.899l-0.006-0.005z" />
<glyph unicode="&#xe903;" glyph-name="computer" d="M810.668 202.667c41.085 0.199 74.32 33.552 74.32 74.669 0 0 0 0.001 0 0.001v0l0.347 373.335c0 41.238-33.428 74.67-74.67 74.67v0h-597.336c-41.238 0-74.67-33.428-74.67-74.67v0-373.335c0-41.238 33.428-74.67 74.67-74.67v0h-149.334v-74.67h896.003v74.67zM213.328 650.667h597.336v-373.335h-597.336z" />
<glyph unicode="&#xe904;" glyph-name="file-pdf" d="M319.175 292.11c0 15.582-10.794 24.874-29.896 24.874-0.507 0.013-1.104 0.022-1.703 0.022-5.002 0-9.872-0.556-14.555-1.607l0.442 0.083v-50.031c3.304-0.645 7.102-1.013 10.988-1.013 0.642 0 1.282 0.012 1.919 0.031l-0.094-0.003c20.369 0 32.902 10.279 32.902 27.644zM437.355 316.468c-0.562 0.014-1.22 0.022-1.882 0.022-5.464 0-10.796-0.555-15.947-1.612l0.51 0.087v-110.762c3.171-0.514 6.826-0.806 10.55-0.806 0.98 0 1.951 0.020 2.919 0.060l-0.139-0.005c1.594-0.171 3.444-0.27 5.314-0.27 28.98 0 52.472 23.492 52.472 52.472 0 2.496-0.174 4.95-0.511 7.352l0.034-0.276c0.193 1.628 0.304 3.513 0.304 5.424 0 26.83-21.748 48.576-48.576 48.576-1.776 0-3.532-0.096-5.259-0.281l0.214 0.018zM656.861 896.002h-377.016c-55.153-0.079-99.842-44.768-99.921-99.914v-369.419h-9.762c-22.24 0-40.27-18.030-40.27-40.27v0-244.054c0-22.24 18.030-40.27 40.27-40.27v0h9.762v-44.775c0.027-55.184 44.741-99.914 99.915-99.968h514.394c55.144 0.079 99.821 44.774 99.874 99.915v602.302zM235.541 342.188c14.188 2.259 30.548 3.552 47.208 3.552 1.553 0 3.105-0.012 4.654-0.034l-0.233 0.003c1.899 0.158 4.109 0.249 6.341 0.249 16.892 0 32.578-5.161 45.569-13.993l-0.282 0.182c11.075-9.149 18.078-22.884 18.078-38.255 0-0.328-0.003-0.656-0.010-0.983l0.001 0.049c0.027-0.638 0.042-1.386 0.042-2.138 0-14.831-5.966-28.268-15.63-38.043l0.006 0.006c-13.474-11.197-30.952-17.993-50.018-17.993-1.754 0-3.496 0.057-5.222 0.17l0.234-0.012c-0.262-0.003-0.572-0.004-0.882-0.004-4.304 0-8.546 0.276-12.706 0.806l0.494-0.052v-60.544h-37.922zM794.047 18.348h-514.201c-21.353 0.054-38.646 17.363-38.673 38.717v44.778h479.518c22.24 0 40.27 18.030 40.27 40.27v244.054c0 0.070 0.001 0.152 0.001 0.234 0 22.24-18.030 40.27-40.27 40.27 0 0-0.001 0-0.001 0h-479.518v369.413c0 0.056 0 0.122 0 0.188 0 21.369 17.309 38.693 38.671 38.72h354.115v-130.757c0.027-38.248 31.026-69.246 69.27-69.273h0.003l128.222 0.376 1.455-578.078c0-0.056 0-0.122 0-0.188 0-21.352-17.282-38.666-38.622-38.72h-0.006zM381.597 176.044v166.144c14.785 2.246 31.846 3.529 49.204 3.529 0.852 0 1.704-0.003 2.554-0.010l-0.131 0.001c2.613 0.223 5.656 0.35 8.728 0.35 22.608 0 43.61-6.881 61.023-18.665l-0.386 0.245c17.59-13.872 28.778-35.185 28.778-59.109 0-1.662-0.056-3.31-0.161-4.942l0.012 0.223c0.088-1.456 0.139-3.158 0.139-4.872 0-25.236-10.889-47.928-28.226-63.636l-0.073-0.065c-19.477-13.851-43.746-22.144-69.951-22.144-2.867 0-5.71 0.1-8.526 0.295l0.381-0.021c-0.392-0.002-0.856-0.003-1.32-0.003-14.823 0-29.42 0.974-43.727 2.859l1.682-0.182zM655.781 274.604v-31.164h-61.014v-68.102h-38.016v169.241h103.254v-31.399h-65.049v-38.673z" />
<glyph unicode="&#xe905;" glyph-name="hand" d="M942.097 681.769v-566.975c-0.249-86.286-70.129-156.168-156.391-156.415h-285.451c-0.029 0-0.062 0-0.097 0-43.558 0-82.957 17.805-111.318 46.532l-0.016 0.016-307.013 312.018s49.24 48.113 50.867 48.864c8.086 7.037 18.724 11.328 30.365 11.328 0.19 0 0.382-0.001 0.572-0.004h-0.030c8.635-0.033 16.719-2.352 23.694-6.379l-0.23 0.122c1.565-0.376 168.552-96.226 168.552-96.226v465.805c1.065 31.576 26.918 56.772 58.656 56.772s57.591-25.194 58.653-56.674l0.003-0.098v-273.727h39.105v371.455c1.065 31.576 26.918 56.772 58.656 56.772s57.591-25.194 58.653-56.674l0.003-0.098v-371.455h39.105v332.351c-0.020 0.571-0.032 1.241-0.032 1.917 0 32.411 26.275 58.686 58.686 58.686s58.686-26.275 58.686-58.686c0-0.673-0.011-1.345-0.033-2.012l0.003 0.098v-332.351h39.105v215.041c-0.020 0.571-0.032 1.241-0.032 1.917 0 32.411 26.275 58.686 58.686 58.686s58.686-26.275 58.686-58.686c0-0.673-0.011-1.345-0.033-2.012l0.003 0.098z" />
<glyph unicode="&#xe906;" glyph-name="maximize" d="M176.762 292.571h-134.096v-335.238h335.238v134.096h-201.143zM42.666 560.763h134.096v201.143h201.143v134.096h-335.238zM847.238 91.429h-201.143v-134.096h335.238v335.238h-134.096zM646.096 896.001v-134.096h201.143v-201.143h134.096v335.238z" />
<glyph unicode="&#xe907;" glyph-name="message" d="M870.402 874.667h-716.801c-49.292-0.255-89.153-40.271-89.153-89.598 0 0 0-0.001 0-0.001v0l-0.449-806.4 179.201 179.201h627.199c49.423 0.153 89.449 40.177 89.599 89.585v537.614c-0.153 49.423-40.177 89.449-89.585 89.599h-0.014zM780.803 337.067h-537.6v89.599h537.6zM780.803 471.467h-537.6v89.599h537.6zM780.803 605.867h-537.6v89.599h537.6z" />
<glyph unicode="&#xe908;" glyph-name="minimize" d="M959.983 362.671h-895.97v127.993h895.97z" />
<glyph unicode="&#xe909;" glyph-name="send" d="M64.426 42.665l895.574 384.002-895.574 384.002-0.425-298.666 640.001-85.332-640.001-85.332z" />
<glyph unicode="&#xe90a;" glyph-name="shortby" d="M512 705.62l189.354-189.354 84.223 84.223-273.577 274.176-274.176-274.176 84.822-84.223zM512 147.714l-189.354 189.354-84.223-84.223 273.577-274.176 274.176 274.176-84.822 84.223z" />
<glyph unicode="&#xe90b;" glyph-name="volume-high" d="M74.334 572.648v-291.901h194.621l243.261-243.261v778.362l-243.261-243.2zM731.096 426.667c-0.071 85.502-49.145 159.525-120.649 195.51l-1.257 0.572v-391.619c72.779 36.24 121.906 110.115 121.906 195.467 0 0.025 0 0.050 0 0.072v-0.005zM609.191 853.335v-100.207c141.888-43.281 243.327-173.026 243.327-326.461s-101.439-283.179-240.911-325.827l-2.412-0.634v-100.207c196.407 45.837 340.471 219.429 340.471 426.668s-144.068 380.831-337.511 426.084l-2.96 0.584z" />
<glyph unicode="&#xe90c;" glyph-name="volume-mute" d="M72.002 578.667v-304h202.665l253.335-253.335v810.665l-253.335-253.335z" />
<glyph unicode="&#xe90d;" glyph-name="microphone" d="M512.021 896.001c-106.272-0.111-192.394-86.231-192.505-192.494v-331.83c0-106.317 86.187-192.505 192.505-192.505s192.505 86.187 192.505 192.505v0 331.818c-0.111 106.272-86.231 192.394-192.494 192.505h-0.011zM649.535 371.678c-1.305-74.943-62.363-135.196-137.495-135.196s-136.191 60.252-137.493 135.073l-0.002 0.121v27.379h274.989zM649.535 676.001h-109.981v-54.989h110.019v-56.829h-109.981v-55.030h110.019v-55.107h-274.989v55.107h110.019v55.030h-109.981v56.829h110.019v54.989h-109.981v27.379c0.096 66.181 46.847 121.415 109.12 134.579l0.899 0.16v-107.126h54.989v107.242c63.173-13.322 109.924-68.557 110.019-134.727v-0.011zM759.515 481.656v-110.019c0-136.688-110.807-247.495-247.495-247.495s-247.495 110.807-247.495 247.495v0 110.019h-55.030v-110.019c0.253-157.265 120.307-286.409 273.767-301.060l1.222-0.095v-58.157h-109.981v-54.989h274.989v54.989h-109.981v58.080c154.682 14.746 274.739 143.891 274.989 301.129v110.123z" />
<glyph unicode="&#xe90e;" glyph-name="tower-transmissions" d="M859.28 234.677l-27.716 27.716c41.971 42.070 67.927 100.137 67.927 164.261 0 64.147-25.969 122.232-67.972 164.306l0.004-0.004 27.76 27.706c49.063-49.171 79.401-117.039 79.401-191.996s-30.338-142.823-79.404-191.999l0.004 0.004zM811.313 570.738l-27.716-27.716c29.713-29.799 48.087-70.922 48.087-116.333s-18.373-86.534-48.091-116.337l0.004 0.004 27.716-27.76c36.815 36.895 59.584 87.825 59.584 144.073s-22.765 107.175-59.586 144.074l0.004-0.004zM761.834 521.282l-27.716-27.716c17.104-17.122 27.68-40.765 27.68-66.877s-10.579-49.756-27.682-66.879l0.002 0.002 27.74-27.716c24.169 24.223 39.109 57.658 39.109 94.584 0 36.937-14.953 70.381-39.136 94.611l0.004-0.004zM164.736 234.677l27.716 27.716c-41.971 42.070-67.927 100.137-67.927 164.261 0 64.147 25.969 122.232 67.972 164.306l-0.004-0.004-27.76 27.706c-49.072-49.165-79.414-117.039-79.414-191.996s30.343-142.831 79.419-191.999l-0.004 0.004zM212.66 282.584l27.74 27.76c-29.722 29.794-48.102 70.914-48.102 116.333s18.382 86.538 48.109 116.337l-0.004-0.004-27.733 27.733c-36.814-36.9-59.584-87.834-59.584-144.083s22.765-107.184 59.584-144.083l-0.004 0.004zM262.139 332.056l27.74 27.76c-17.089 17.122-27.661 40.756-27.661 66.856s10.57 49.738 27.661 66.856l-0.003-0.003-27.685 27.713c-24.188-24.229-39.149-57.676-39.149-94.621 0-36.917 14.935-70.347 39.1-94.573l-0.004 0.004z" />
<glyph unicode="&#xe90f;" glyph-name="chevron-left" horiz-adv-x="632" d="M632.32 818.347l-120.32 120.32-512-512 512-512 120.32 120.32-390.827 391.68z" />
<glyph unicode="&#xe910;" glyph-name="chevron-right" horiz-adv-x="632" d="M0 34.987l120.32-120.32 512 512-512 512-120.32-120.32 390.827-391.68z" />
<glyph unicode="&#xe911;" glyph-name="curtain" d="M178.816 207.723h-3.904c-63.571 0.681-123.615 15.069-177.544 40.34l2.632-1.108v-332.288h262.4c0.533 8.285 0.837 17.965 0.837 27.716 0 99.466-31.625 191.546-85.367 266.733l0.946-1.393zM185.6 338.347l1.92-0.512c95.577 104.57 164.46 235.099 194.906 379.785l0.934 5.303c-51.685 10.214-96.901 23.811-140.18 41.207l5.204-1.847c-87.367 33.471-161.463 84.345-221.089 148.8l-0.351 0.384-24.064 27.2h-2.88v-531.52c52.7-26.558 114.412-50.066 178.713-67.235l6.887-1.565zM1099.584 246.123c-21.278-10.226-46.169-19.020-72.105-25.102l-2.519-0.498c-30.448-7.637-65.53-12.274-101.607-12.796l-0.345-0.004h-2.624c-52.576-73.712-84.060-165.624-84.060-264.891 0-9.886 0.312-19.7 0.928-29.431l-0.067 1.33h262.4zM715.968 722.923c31.328-149.806 100.049-280.195 195.968-385.344l-0.576 0.64h0.576c72.312 19.032 134.629 42.122 193.988 70.414l-6.596-2.83v532.864h-2.88l-24.064-27.2c-59.978-64.837-134.074-115.711-217.479-147.842l-3.961-1.342c-38.076-15.549-83.291-29.146-130.030-38.531l-4.946-0.829zM391.872 763.115c47.442-9.609 101.975-15.109 157.792-15.109s110.35 5.5 163.086 15.988l-5.294-0.878c132.316 22.36 247.112 85.303 333.97 175.37l0.174 0.182h-983.872c87.032-90.249 201.828-153.192 330.609-175.056l3.535-0.496zM174.848 248.619c16.32 0 12.8 47.168 1.792 49.6-8.32 1.856-16.576 3.84-24.704 5.888-57.622 13.005-108.326 31.389-155.832 55.21l3.896-1.77v-63.296c38.526-22.595 83.972-37.892 132.493-42.767l1.395-0.113c12.21-1.653 26.416-2.65 40.835-2.751l0.125-0.001zM947.072 304.427c-8.576-2.176-17.28-4.224-26.048-6.4-10.752-2.432-14.528-49.6 1.792-49.6 15.161 0.11 29.966 1.153 44.493 3.075l-1.805-0.195c49.808 4.983 95.227 19.803 135.628 42.498l-1.74-0.898 1.792 1.152v63.296l-1.792-1.152c-43.466-20.797-94.294-38.596-147.263-50.796l-5.057-0.98z" />
<glyph unicode="&#xe912;" glyph-name="delete" horiz-adv-x="796" d="M56.905 28.477c0.166-62.763 50.98-113.603 113.717-113.81h455.115c62.789 0.166 113.644 51.021 113.81 113.794v682.658h-682.642zM196.827 433.469l80.457 80.457 121.198-120.613 120.32 120.393 80.457-80.457-120.613-120.613 120.393-120.027-80.457-80.457-120.613 120.613-120.027-120.613-80.457 80.457 120.613 120.613zM597.358 881.762l-56.905 56.905h-284.453l-56.905-56.905h-199.095v-113.737h796.453v113.737z" />
<glyph unicode="&#xe913;" glyph-name="download" horiz-adv-x="843" d="M843.303 577.274h-240.955v361.393h-361.393v-361.393h-240.955l421.652-421.652zM0 35.105v-120.438h843.303v120.438z" />
<glyph unicode="&#xe914;" glyph-name="info" d="M460.8 170.667h102.4v307.2h-102.4zM512 938.667c-282.77 0-512-229.23-512-512s229.23-512 512-512c282.77 0 512 229.23 512 512v0c0 282.77-229.23 512-512 512v0zM512 17.067c-226.216 0-409.6 183.384-409.6 409.6s183.384 409.6 409.6 409.6c226.216 0 409.6-183.384 409.6-409.6v0c-0.291-226.099-183.501-409.309-409.572-409.6h-0.028zM460.8 580.267h102.4v102.4h-102.4z" />
<glyph unicode="&#xe915;" glyph-name="play" d="M512 938.667c-282.77 0-512-229.23-512-512s229.23-512 512-512c282.77 0 512 229.23 512 512v0c0 282.77-229.23 512-512 512v0zM409.6 196.267v460.8l307.2-230.4z" />
<glyph unicode="&#xe916;" glyph-name="polling-manager" horiz-adv-x="1209" d="M1009.401 376.537c-2.531 1.361-5.531 2.177-8.718 2.218h-0.013c-0.034 0-0.075 0-0.116 0-6.544 0-12.447-2.745-16.62-7.146l-46.526-46.526c-4.024-3.907-6.521-9.367-6.521-15.41 0-0.218 0.003-0.435 0.010-0.651l-0.001 0.032v-184.705c-0.162-64.199-52.162-116.2-116.346-116.362h-605.084c-0.458-0.007-0.999-0.011-1.541-0.011-31.634 0-60.206 13.107-80.584 34.186l-0.030 0.032c-21.152 20.413-34.287 49.013-34.287 80.68 0 0.468 0.003 0.935 0.009 1.402l-0.001-0.071v604.997c-0.007 0.458-0.011 0.999-0.011 1.541 0 31.634 13.107 60.206 34.186 80.584l0.032 0.030c20.419 21.196 49.048 34.36 80.751 34.36 0.519 0 1.037-0.004 1.554-0.011l-0.079 0.001h605.068c11.652-0.056 22.909-1.646 33.611-4.577l-0.907 0.212c1.912-0.742 4.126-1.251 6.433-1.426l0.079-0.005c0.025 0 0.055 0 0.085 0 6.554 0 12.466 2.744 16.652 7.147l0.009 0.010 35.782 35.782c4.325 4.127 7.014 9.935 7.014 16.372 0 1.679-0.183 3.315-0.53 4.889l0.028-0.15c-1.259 7.576-6.234 13.76-12.954 16.691l-0.142 0.055c-24.48 11.483-53.161 18.184-83.407 18.184-0.591 0-1.182-0.003-1.772-0.008l0.090 0.001h-605.14c-0.885 0.014-1.93 0.022-2.976 0.022-56.895 0-108.29-23.553-144.965-61.44l-0.053-0.055c-37.944-36.728-61.498-88.123-61.498-145.020 0-1.121 0.009-2.239 0.027-3.356l-0.002 0.168v-605.068c-0.014-0.885-0.022-1.93-0.022-2.976 0-56.895 23.553-108.29 61.44-144.965l0.055-0.053c36.727-37.942 88.122-61.495 145.017-61.495 1.046 0 2.091 0.008 3.133 0.024l-0.157-0.002h605.068c115.587 0.244 209.222 93.879 209.466 209.442v231.316c0.009 0.229 0.014 0.497 0.014 0.766 0 9.403-6.045 17.395-14.462 20.299l-0.151 0.045zM1191.959 793.966l-80.008 80.008c-10.536 10.781-25.223 17.466-41.471 17.466s-30.935-6.685-41.46-17.455l-470.54-470.54-191.217 191.432c-10.536 10.781-25.223 17.466-41.471 17.466s-30.935-6.685-41.46-17.455l-0.011-0.011-79.936-80.151c-10.781-10.536-17.466-25.223-17.466-41.471s6.685-30.935 17.455-41.46l312.743-312.743c10.536-10.781 25.223-17.466 41.471-17.466s30.935 6.685 41.46 17.455l591.983 591.983c10.759 10.532 17.43 25.205 17.43 41.435s-6.67 30.903-17.419 41.425l-0.010 0.010z" />
<glyph unicode="&#xe917;" glyph-name="presentation-list" horiz-adv-x="1170" d="M0 207.238h1170.286v146.286h-1170.286zM0-85.333h1170.286v146.286h-1170.286zM0 499.81h1170.286v146.286h-1170.286zM0 938.667v-146.286h1170.286v146.286z" />
<glyph unicode="&#xe918;" glyph-name="presentation-manager" d="M1024 938.667h-1024v-180.096h60.032v-531.2h421.952v-73.984l-230.784-192.512 38.4-46.080 192.384 160v-160.128h60.032v160.384l192.384-160.384 38.4 46.080-230.784 192.448v73.984h421.952v531.2h60.032zM903.936 287.147h-783.872v471.424h783.872zM963.968 818.347h-903.936v60.288h904zM231.232 358.059l188.544 210.496 195.2-141.312 168.832 168.832v-111.552h60.032v213.824h-214.016v-60.032h111.552l-132.608-132.608-197.312 143.168-224.64-250.816z" />
<glyph unicode="&#xe919;" glyph-name="public-chat" d="M972.8 733.867h-102.4v-460.8h-665.6v-102.4c0-28.277 22.923-51.2 51.2-51.2v0h563.2l204.8-204.8v768c0 28.277-22.923 51.2-51.2 51.2v0zM768 426.667v460.8c0 28.277-22.923 51.2-51.2 51.2v0h-665.6c-28.277 0-51.2-22.923-51.2-51.2v0-716.8l204.8 204.8h512c28.277 0 51.2 22.923 51.2 51.2v0z" />
<glyph unicode="&#xe91a;" glyph-name="question-manager" horiz-adv-x="739" d="M454.485 170.667h-192c-17.487-0.464-31.54-14.536-31.971-31.988l-0.001-0.041v-192c0.432-17.493 14.484-31.565 31.928-32.028l0.043-0.001h192c17.493 0.432 31.565 14.484 32.028 31.928l0.001 0.043v192c-0.463 17.5-14.529 31.566-31.985 32.028l-0.043 0.001zM706.503 745.245c-21.826 40.415-50.246 74.445-84.196 101.91l-0.625 0.49c-33.484 26.79-72.099 49.135-113.827 65.214l-2.965 1.005c-38.163 15.432-82.406 24.513-128.736 24.803l-0.118 0.001c-3.706 0.121-8.062 0.189-12.434 0.189-153.96 0-288.033-85.145-357.701-210.915l-1.065-2.096c-3.058-4.776-4.874-10.603-4.874-16.853 0-1.966 0.18-3.889 0.523-5.755l-0.030 0.194c1.44-8.257 5.963-15.257 12.314-19.907l0.088-0.061 131.186-100.011c5.642-3.793 12.538-6.14 19.966-6.37l0.059-0.001c10.167 0.119 19.147 5.096 24.743 12.713l0.061 0.087c25.464 34.499 53.515 64.662 84.61 91.382l0.724 0.608c22.866 14.63 50.756 23.32 80.676 23.32 2.018 0 4.027-0.040 6.026-0.118l-0.287 0.009c0.835 0.017 1.818 0.027 2.804 0.027 31.073 0 59.908-9.582 83.712-25.952l-0.5 0.325c21.393-11.897 35.968-33.791 37.424-59.2l0.009-0.192c0.063-1.261 0.099-2.738 0.099-4.224 0-21.525-7.571-41.282-20.195-56.753l0.128 0.162c-18.606-18.915-40.962-34.079-65.871-44.294l-1.315-0.477c-45.175-21.294-83.283-50.574-114.027-86.363l-0.377-0.449c-31.293-32.502-50.91-76.437-51.993-124.946l-0.004-0.21v-36.011c0.080-11.017 3.112-21.309 8.345-30.145l-0.153 0.279c3.478-8.245 11.191-14.074 20.34-14.786l0.083-0.005h192c9.333 0.269 17.486 5.086 22.351 12.303l0.063 0.099c5.828 6.999 9.428 16.032 9.614 25.901l0.001 0.040c2.55 20.475 10.432 38.742 22.198 53.832l-0.182-0.243c13.939 21.584 32.374 39.111 54.079 51.593l0.762 0.404q31.175 17.579 48.811 28.444c17.316 11.327 32.334 22.783 46.479 35.208l-0.456-0.392c16.809 13.768 31.32 29.437 43.48 46.867l0.495 0.749c25.352 40.392 40.391 89.491 40.391 142.103 0 0.042 0 0.084 0 0.126v-0.007c-0.081 46.382-12.197 89.916-33.392 127.669l0.681-1.319z" />
<glyph unicode="&#xe91b;" glyph-name="remote-control" horiz-adv-x="491" d="M155.73 785.891c-5.019-5.332-8.103-12.534-8.103-20.456 0-16.499 13.375-29.874 29.874-29.874 7.908 0 15.099 3.073 20.443 8.090l-0.016-0.015c12.156 12.141 28.941 19.65 47.48 19.65s35.324-7.509 47.481-19.651l-0.001 0.001c5.463-5.803 13.195-9.418 21.771-9.418 16.499 0 29.874 13.375 29.874 29.874 0 8.591-3.626 16.334-9.431 21.784l-0.016 0.015c-22.972 22.927-54.684 37.105-89.706 37.105s-66.735-14.178-89.709-37.107l0.002 0.002zM122.562 828.032c31.451 31.458 74.905 50.916 122.903 50.916s91.451-19.458 122.902-50.916v0c5.332-5.019 12.534-8.103 20.456-8.103 16.499 0 29.874 13.375 29.874 29.874 0 7.908-3.073 15.099-8.090 20.443l0.015-0.016c-42.264 42.275-100.657 68.423-165.158 68.423s-122.894-26.148-165.157-68.423v0c-5.002-5.328-8.075-12.519-8.075-20.427 0-16.499 13.375-29.874 29.874-29.874 7.922 0 15.125 3.084 20.471 8.117l-0.015-0.014zM0 83.289c0.097-93.088 75.534-168.525 168.613-168.622h153.694c93.088 0.097 168.525 75.534 168.622 168.613v352.928h-490.929zM336.563 373.337c6.352 6.352 15.127 10.281 24.819 10.281 19.385 0 35.099-15.714 35.099-35.099s-15.714-35.099-35.099-35.099c-19.384 0-35.098 15.714-35.099 35.098v0c0.033 9.687 3.953 18.452 10.282 24.821l-0.002-0.002zM336.563 257.42c6.352 6.352 15.127 10.281 24.819 10.281 19.385 0 35.099-15.714 35.099-35.099s-15.714-35.099-35.099-35.099c-19.384 0-35.098 15.714-35.099 35.098v0c0.033 9.687 3.953 18.452 10.282 24.821l-0.002-0.002zM336.563 141.503c6.352 6.352 15.127 10.281 24.819 10.281 19.385 0 35.099-15.714 35.099-35.099s-15.714-35.099-35.099-35.099c-19.384 0-35.098 15.714-35.099 35.098v0c0.033 9.687 3.953 18.452 10.282 24.821l-0.002-0.002zM220.646 373.337c6.352 6.352 15.127 10.281 24.819 10.281 19.385 0 35.099-15.714 35.099-35.099s-15.714-35.099-35.099-35.099c-19.384 0-35.098 15.714-35.099 35.098v0c0.017 9.679 3.917 18.444 10.226 24.822l-0.003-0.003zM220.646 257.42c6.352 6.352 15.127 10.281 24.819 10.281 19.385 0 35.099-15.714 35.099-35.099s-15.714-35.099-35.099-35.099c-19.384 0-35.098 15.714-35.099 35.098v0c0.017 9.679 3.917 18.444 10.226 24.822l-0.003-0.003zM220.646 141.503c6.352 6.352 15.127 10.281 24.819 10.281 19.385 0 35.099-15.714 35.099-35.099s-15.714-35.099-35.099-35.099c-19.384 0-35.098 15.714-35.099 35.098v0c0.017 9.679 3.917 18.444 10.226 24.822l-0.003-0.003zM104.729 373.337c6.352 6.352 15.127 10.281 24.819 10.281 19.385 0 35.099-15.714 35.099-35.099s-15.714-35.099-35.099-35.099c-19.384 0-35.098 15.714-35.099 35.098v0c0.017 9.679 3.917 18.444 10.226 24.822l-0.003-0.003zM104.729 257.42c6.352 6.352 15.127 10.281 24.819 10.281 19.385 0 35.099-15.714 35.099-35.099s-15.714-35.099-35.099-35.099c-19.384 0-35.098 15.714-35.099 35.098v0c0.017 9.679 3.917 18.444 10.226 24.822l-0.003-0.003zM104.729 141.503c6.352 6.352 15.127 10.281 24.819 10.281 19.385 0 35.099-15.714 35.099-35.099s-15.714-35.099-35.099-35.099c-19.384 0-35.098 15.714-35.099 35.098v0c0.017 9.679 3.917 18.444 10.226 24.822l-0.003-0.003zM462.816 666.395h-434.817c-15.462-0.159-27.954-12.651-28.113-28.098v-145.806h490.929v145.791c-0.158 15.423-12.586 27.891-27.979 28.113h-0.021z" />
<glyph unicode="&#xe91c;" glyph-name="resource-manager" d="M995.584 813.483l-79.68 96.768c-13.555 17.439-34.534 28.553-58.11 28.553-1.577 0-3.142-0.050-4.694-0.148l0.212 0.011h-682.624c-0.254 0.002-0.555 0.004-0.856 0.004-26.424 0-50.306-10.879-67.414-28.401l-0.018-0.019-73.984-96.768c-16.937-19.855-27.534-45.571-28.411-73.736l-0.005-0.184v-711.104c0.181-62.772 51.019-113.611 113.774-113.792h796.434c62.772 0.181 113.611 51.019 113.792 113.774v711.122c-0.882 28.349-11.479 54.065-28.555 74.087l0.139-0.167zM512 113.771l-312.896 312.896h199.104v113.792h227.584v-113.792h199.104zM119.488 824.875l45.504 56.896h682.624l51.2-56.896z" />
<glyph unicode="&#xe91d;" glyph-name="survey-manager" horiz-adv-x="1117" d="M139.613 822.262c0-12.858-10.423-23.281-23.281-23.281s-23.281 10.423-23.281 23.281c0 12.858 10.423 23.281 23.281 23.281s23.281-10.423 23.281-23.281zM232.737 822.262c0-12.858-10.423-23.281-23.281-23.281s-23.281 10.423-23.281 23.281c0 12.858 10.423 23.281 23.281 23.281s23.281-10.423 23.281-23.281zM325.861 822.262c0-12.858-10.423-23.281-23.281-23.281s-23.281 10.423-23.281 23.281c0 12.858 10.423 23.281 23.281 23.281s23.281-10.423 23.281-23.281zM256.018 473.193h511.964c12.858 0 23.281 10.423 23.281 23.281s-10.423 23.281-23.281 23.281v0h-511.964c-12.858 0-23.281-10.423-23.281-23.281s10.423-23.281 23.281-23.281v0zM535.245 240.528h-279.227c-12.858 0-23.281-10.423-23.281-23.281s10.423-23.281 23.281-23.281v0h279.227c12.858 0 23.281 10.423 23.281 23.281s-10.423 23.281-23.281 23.281v0zM1027.977 659.079c-1.374 0-2.675 0-3.977-0.434v186.898c-0.041 51.414-41.709 93.083-93.12 93.124h-837.757c-51.414-0.041-93.083-41.709-93.124-93.12v-837.756c0-0.064 0-0.141 0-0.217 0-51.445 41.684-93.155 93.12-93.196h837.756c51.414 0.041 93.083 41.709 93.124 93.12v432.798l67.023 66.951c15.984 16.096 25.862 38.273 25.862 62.758 0 49.111-39.745 88.939-88.824 89.075h-0.013zM46.562 845.543c0 25.715 20.846 46.562 46.562 46.562v0h837.752c25.715 0 46.562-20.846 46.562-46.562v0-93.124h-930.876zM977.438 7.791c0-25.715-20.846-46.562-46.562-46.562v0h-837.752c-25.715 0-46.562 20.846-46.562 46.562v0 698.139h930.876v-62.468c-4.646-3.165-8.711-6.518-12.445-10.204l0.010 0.009-253.054-253.054h-455.497c-12.858 0-23.281-10.423-23.281-23.281s10.423-23.281 23.281-23.281h417.972l-22.341-111.777c-0.286-1.369-0.45-2.943-0.45-4.555 0-12.858 10.423-23.281 23.281-23.281 0.006 0 0.011 0 0.017 0h-0.001c0.012 0 0.026 0 0.040 0 1.597 0 3.158 0.158 4.667 0.459l-0.151-0.025 116.332 23.281c4.702 0.943 8.771 3.197 11.929 6.362v0l169.763 169.763zM779.767 261.929l-75.193-15.039 15.039 75.265 211.264 211.264 60.154-60.154zM1058.054 540.216l-34.054-34.054-60.227 60.227 34.126 34.126c7.588 7.1 17.817 11.459 29.063 11.459 23.519 0 42.585-19.066 42.585-42.585 0-11.265-4.374-21.508-11.516-29.124l0.021 0.023z" />
<glyph unicode="&#xe91e;" glyph-name="upload" horiz-adv-x="843" d="M240.941 155.608h361.412v361.412h240.941l-421.647 421.647-421.647-421.647h240.941zM0 35.138h843.294v-120.471h-843.294z" />
<glyph unicode="&#xe91f;" glyph-name="video-manager" d="M921.6 631.467h-819.2v102.4h819.2zM819.2 938.667h-614.4v-102.4h614.4zM1024 426.667v-409.6c0-56.554-45.846-102.4-102.4-102.4v0h-819.2c-56.554 0-102.4 45.846-102.4 102.4v0 409.6c0 56.554 45.846 102.4 102.4 102.4v0h819.2c56.554 0 102.4-45.846 102.4-102.4v0zM716.8 221.867l-307.2 167.424v-334.336z" />
<glyph unicode="&#xe920;" glyph-name="visibility" horiz-adv-x="1502" d="M750.907 938.667c-339.38-0.218-629.756-209.799-748.98-506.567l-1.927-5.433c120.979-302.356 411.475-512.049 750.946-512.049s629.967 209.693 749.024 506.617l1.923 5.432c-121.16 302.224-411.573 511.815-750.962 512h-0.024zM750.907 85.36c-188.465 0.045-341.228 152.836-341.228 341.307 0 188.499 152.808 341.307 341.307 341.307s341.307-152.808 341.307-341.307v0c-0.090-188.49-152.889-341.262-341.382-341.307h-0.004zM750.907 631.467c-113.108 0-204.8-91.692-204.8-204.8s91.692-204.8 204.8-204.8c113.108 0 204.8 91.692 204.8 204.8v0c0 113.108-91.692 204.8-204.8 204.8v0z" />
</font>
</defs>
</svg>
